General 
Complete name : Daisies (Vera Chytilova, 1966).mkv 
Format : Matroska 
File size : 4.80 GiB 
Duration : 1h 16mn 
Overall bit rate : 9 026 Kbps 
Movie name : Sedmikrásky (Vera Chytilová, 1966) 
Encoded date : UTC 2012-08-17 10:48:04 
Writing application : mkvmerge v5.6.0 ('Kenya Kane') built on May 27 2012 16:44:04 
Writing library : libebml v1.2.3 + libmatroska v1.3.0 

Video 
ID : 1 
Format : AVC 
Format/Info : Advanced Video Codec 
Format profile : High@L4.1 
Format settings, CABAC : Yes 
Format settings, ReFrames : 5 frames 
Muxing mode : Header stripping 
Codec ID : V_MPEG4/ISO/AVC 
Duration : 1h 16mn 
Bit rate : 7 030 Kbps 
Width : 1 280 pixels 
Height : 960 pixels 
Display aspect ratio : 4:3 
Frame rate : 23.976 fps 
Color space : YUV 
Chroma subsampling : 4:2:0 
Bit depth : 8 bits 
Scan type : Progressive 
Bits/(Pixel*Frame) : 0.239 
Stream size : 3.70 GiB (77%) 
Writing library : x264 core 125 r2200 999b753 
Encoding settings : cabac=1 / ref=5 / deblock=1:-1:-1 / analyse=0x3:0x113 / me=umh / subme=7 / psy=1 / psy_rd=1.00:0.15 / mixed_ref=1 / me_range=16 / chroma_me=1 / trellis=1 / 8x8dct=1 / cqm=0 / deadzone=21,11 / fast_pskip=0 / chroma_qp_offset=-3 / threads=3 / lookahead_threads=1 / sliced_threads=0 / nr=0 / decimate=1 / interlaced=0 / bluray_compat=0 / constrained_intra=0 / bframes=3 / b_pyramid=2 / b_adapt=1 / b_bias=0 / direct=1 / weightb=1 / open_gop=0 / weightp=2 / keyint=240 / keyint_min=23 / scenecut=40 / intra_refresh=0 / rc_lookahead=40 / rc=2pass / mbtree=1 / bitrate=7030 / ratetol=1.0 / qcomp=0.60 / qpmin=0 / qpmax=69 / qpstep=4 / cplxblur=20.0 / qblur=0.5 / ip_ratio=1.40 / aq=1:1.00 

Audio #1 
ID : 2 
Format : DTS 
Format/Info : Digital Theater Systems 
Format profile : MA / Core 
Muxing mode : Header stripping 
Codec ID : A_DTS 
Duration : 1h 16mn 
Bit rate mode : Variable 
Bit rate : 890 Kbps / 755 Kbps 
Channel(s) : 1 channel 
Channel positions : Front: C 
Sampling rate : 48.0 KHz 
Bit depth : 16 bits 
Compression mode : Lossless / Lossy 
Language : Czech 

Audio #2 
ID : 3 
Format : DTS 
Format/Info : Digital Theater Systems 
Format profile : MA / Core 
Muxing mode : Header stripping 
Codec ID : A_DTS 
Duration : 1h 16mn 
Bit rate mode : Variable 
Bit rate : 800 Kbps / 755 Kbps 
Channel(s) : 1 channel 
Channel positions : Front: C 
Sampling rate : 48.0 KHz 
Bit depth : 16 bits 
Compression mode : Lossless / Lossy 
Title : German dub 
Language : German 

Audio #3 
ID : 4 
Format : AC-3 
Format/Info : Audio Coding 3 
Mode extension : CM (complete main) 
Muxing mode : Header stripping 
Codec ID : A_AC3 
Duration : 1h 16mn 
Bit rate mode : Constant 
Bit rate : 192 Kbps 
Channel(s) : 1 channel 
Channel positions : Front: C 
Sampling rate : 48.0 KHz 
Bit depth : 16 bits 
Compression mode : Lossy 
Stream size : 104 MiB (2%) 
Title : Commentary 
Language : English 
